<mxfile host="app.diagrams.net" modified="2021-02-22T12:18:13.717Z" agent="5.0 (Macintosh; Intel Mac OS X 10_14_6) AppleWebKit/537.36 (KHTML, like Gecko) Chrome/88.0.4324.150 Safari/537.36" etag="vU48hpzBEonXiZ6MY5rI" version="14.4.2" type="github">
  <diagram name="Page-1" id="5f0bae14-7c28-e335-631c-24af17079c00">
    <mxGraphModel dx="848" dy="510" grid="1" gridSize="10" guides="1" tooltips="1" connect="1" arrows="1" fold="1" page="1" pageScale="1" pageWidth="1100" pageHeight="850" background="#ffffff" math="0" shadow="0">
      <root>
        <mxCell id="0" />
        <mxCell id="1" parent="0" />
        <mxCell id="hPJNeQcR5pb7TXHDENTw-1" value="«Component»&lt;br&gt;&lt;b&gt;School Database&lt;/b&gt;" style="html=1;dropTarget=0;" parent="1" vertex="1">
          <mxGeometry x="470" y="300" width="160" height="90" as="geometry" />
        </mxCell>
        <mxCell id="hPJNeQcR5pb7TXHDENTw-2" value="" style="shape=module;jettyWidth=8;jettyHeight=4;" parent="hPJNeQcR5pb7TXHDENTw-1" vertex="1">
          <mxGeometry x="1" width="20" height="20" relative="1" as="geometry">
            <mxPoint x="-27" y="7" as="offset" />
          </mxGeometry>
        </mxCell>
        <mxCell id="hPJNeQcR5pb7TXHDENTw-20" style="edgeStyle=orthogonalEdgeStyle;rounded=0;orthogonalLoop=1;jettySize=auto;html=1;entryX=0;entryY=0.25;entryDx=0;entryDy=0;dashed=1;" parent="1" source="hPJNeQcR5pb7TXHDENTw-4" target="hPJNeQcR5pb7TXHDENTw-12" edge="1">
          <mxGeometry relative="1" as="geometry" />
        </mxCell>
        <object label="Student" id="hPJNeQcR5pb7TXHDENTw-4">
          <mxCell style="shape=umlActor;verticalLabelPosition=bottom;verticalAlign=top;html=1;" parent="1" vertex="1">
            <mxGeometry x="80" y="240" width="30" height="60" as="geometry" />
          </mxCell>
        </object>
        <mxCell id="hPJNeQcR5pb7TXHDENTw-9" style="edgeStyle=orthogonalEdgeStyle;rounded=0;orthogonalLoop=1;jettySize=auto;html=1;entryX=1;entryY=0.5;entryDx=0;entryDy=0;dashed=1;" parent="1" source="hPJNeQcR5pb7TXHDENTw-7" target="hPJNeQcR5pb7TXHDENTw-1" edge="1">
          <mxGeometry relative="1" as="geometry" />
        </mxCell>
        <mxCell id="hPJNeQcR5pb7TXHDENTw-7" value="Admin" style="shape=umlActor;verticalLabelPosition=bottom;verticalAlign=top;html=1;" parent="1" vertex="1">
          <mxGeometry x="740" y="315" width="30" height="60" as="geometry" />
        </mxCell>
        <mxCell id="hPJNeQcR5pb7TXHDENTw-21" style="edgeStyle=orthogonalEdgeStyle;rounded=0;orthogonalLoop=1;jettySize=auto;html=1;entryX=-0.009;entryY=0.445;entryDx=0;entryDy=0;entryPerimeter=0;dashed=1;" parent="1" source="hPJNeQcR5pb7TXHDENTw-8" target="hPJNeQcR5pb7TXHDENTw-12" edge="1">
          <mxGeometry relative="1" as="geometry" />
        </mxCell>
        <mxCell id="hPJNeQcR5pb7TXHDENTw-8" value="Teacher" style="shape=umlActor;verticalLabelPosition=bottom;verticalAlign=top;html=1;" parent="1" vertex="1">
          <mxGeometry x="80" y="360" width="30" height="60" as="geometry" />
        </mxCell>
        <mxCell id="hPJNeQcR5pb7TXHDENTw-12" value="&lt;p style=&quot;margin: 0px ; margin-top: 6px ; text-align: center&quot;&gt;&lt;b&gt;Web-based planning tool&lt;/b&gt;&lt;/p&gt;" style="align=left;overflow=fill;html=1;dropTarget=0;" parent="1" vertex="1">
          <mxGeometry x="190" y="290" width="230" height="110" as="geometry" />
        </mxCell>
        <mxCell id="hPJNeQcR5pb7TXHDENTw-13" value="" style="shape=component;jettyWidth=8;jettyHeight=4;" parent="hPJNeQcR5pb7TXHDENTw-12" vertex="1">
          <mxGeometry x="1" width="20" height="20" relative="1" as="geometry">
            <mxPoint x="-24" y="4" as="offset" />
          </mxGeometry>
        </mxCell>
        <mxCell id="hPJNeQcR5pb7TXHDENTw-24" style="edgeStyle=orthogonalEdgeStyle;rounded=0;orthogonalLoop=1;jettySize=auto;html=1;dashed=1;" parent="1" source="hPJNeQcR5pb7TXHDENTw-14" target="hPJNeQcR5pb7TXHDENTw-1" edge="1">
          <mxGeometry relative="1" as="geometry">
            <Array as="points">
              <mxPoint x="510" y="410" />
              <mxPoint x="540" y="410" />
            </Array>
          </mxGeometry>
        </mxCell>
        <mxCell id="hPJNeQcR5pb7TXHDENTw-14" value="«Component»&lt;br&gt;&lt;b&gt;Teachers&lt;/b&gt;" style="html=1;dropTarget=0;" parent="1" vertex="1">
          <mxGeometry x="450" y="420" width="120" height="60" as="geometry" />
        </mxCell>
        <mxCell id="hPJNeQcR5pb7TXHDENTw-15" value="" style="shape=module;jettyWidth=8;jettyHeight=4;" parent="hPJNeQcR5pb7TXHDENTw-14" vertex="1">
          <mxGeometry x="1" width="20" height="20" relative="1" as="geometry">
            <mxPoint x="-27" y="7" as="offset" />
          </mxGeometry>
        </mxCell>
        <mxCell id="hPJNeQcR5pb7TXHDENTw-26" style="edgeStyle=orthogonalEdgeStyle;rounded=0;orthogonalLoop=1;jettySize=auto;html=1;entryX=0.75;entryY=1;entryDx=0;entryDy=0;dashed=1;" parent="1" source="hPJNeQcR5pb7TXHDENTw-16" target="hPJNeQcR5pb7TXHDENTw-1" edge="1">
          <mxGeometry relative="1" as="geometry">
            <Array as="points">
              <mxPoint x="790" y="410" />
              <mxPoint x="585" y="410" />
            </Array>
          </mxGeometry>
        </mxCell>
        <mxCell id="hPJNeQcR5pb7TXHDENTw-16" value="«Component»&lt;br&gt;&lt;b&gt;Students&lt;/b&gt;" style="html=1;dropTarget=0;" parent="1" vertex="1">
          <mxGeometry x="730" y="420" width="120" height="60" as="geometry" />
        </mxCell>
        <mxCell id="hPJNeQcR5pb7TXHDENTw-17" value="" style="shape=module;jettyWidth=8;jettyHeight=4;" parent="hPJNeQcR5pb7TXHDENTw-16" vertex="1">
          <mxGeometry x="1" width="20" height="20" relative="1" as="geometry">
            <mxPoint x="-27" y="7" as="offset" />
          </mxGeometry>
        </mxCell>
        <mxCell id="hPJNeQcR5pb7TXHDENTw-25" style="edgeStyle=orthogonalEdgeStyle;rounded=0;orthogonalLoop=1;jettySize=auto;html=1;entryX=0.617;entryY=1;entryDx=0;entryDy=0;entryPerimeter=0;dashed=1;" parent="1" source="hPJNeQcR5pb7TXHDENTw-18" target="hPJNeQcR5pb7TXHDENTw-1" edge="1">
          <mxGeometry relative="1" as="geometry">
            <Array as="points">
              <mxPoint x="650" y="410" />
              <mxPoint x="561" y="410" />
            </Array>
          </mxGeometry>
        </mxCell>
        <mxCell id="hPJNeQcR5pb7TXHDENTw-18" value="«Component»&lt;br&gt;&lt;b&gt;Subjects&lt;/b&gt;" style="html=1;dropTarget=0;" parent="1" vertex="1">
          <mxGeometry x="590" y="420" width="120" height="60" as="geometry" />
        </mxCell>
        <mxCell id="hPJNeQcR5pb7TXHDENTw-19" value="" style="shape=module;jettyWidth=8;jettyHeight=4;" parent="hPJNeQcR5pb7TXHDENTw-18" vertex="1">
          <mxGeometry x="1" width="20" height="20" relative="1" as="geometry">
            <mxPoint x="-27" y="7" as="offset" />
          </mxGeometry>
        </mxCell>
        <mxCell id="GrHaTtCAGcDexZ11616I-4" value="" style="rounded=0;orthogonalLoop=1;jettySize=auto;html=1;endArrow=none;endFill=0;exitX=0;exitY=0.5;exitDx=0;exitDy=0;" edge="1" target="GrHaTtCAGcDexZ11616I-6" parent="1" source="hPJNeQcR5pb7TXHDENTw-1">
          <mxGeometry relative="1" as="geometry">
            <mxPoint x="420" y="355" as="sourcePoint" />
          </mxGeometry>
        </mxCell>
        <mxCell id="GrHaTtCAGcDexZ11616I-5" value="" style="rounded=0;orthogonalLoop=1;jettySize=auto;html=1;endArrow=halfCircle;endFill=0;endSize=6;strokeWidth=1;exitX=1;exitY=0.5;exitDx=0;exitDy=0;" edge="1" parent="1" source="hPJNeQcR5pb7TXHDENTw-12">
          <mxGeometry relative="1" as="geometry">
            <mxPoint x="460" y="355" as="sourcePoint" />
            <mxPoint x="450" y="345" as="targetPoint" />
          </mxGeometry>
        </mxCell>
        <mxCell id="GrHaTtCAGcDexZ11616I-6" value="" style="ellipse;whiteSpace=wrap;html=1;fontFamily=Helvetica;fontSize=12;fontColor=#000000;align=center;strokeColor=#000000;fillColor=#ffffff;points=[];aspect=fixed;resizable=0;" vertex="1" parent="1">
          <mxGeometry x="450" y="340" width="10" height="10" as="geometry" />
        </mxCell>
      </root>
    </mxGraphModel>
  </diagram>
</mxfile>
